<?xml version="1.0" encoding="UTF-8"?>
<svg id="Layer_2" data-name="Layer 2" xmlns="http://www.w3.org/2000/svg" viewBox="0 0 1217.05 329.66">
  <defs>
    <style>
      .cls-1 {
        font-family: Poppins-Regular, Poppins;
        font-size: 48px;
        letter-spacing: .38em;
        stroke: #000;
      }
    </style>
  </defs>
  <path d="M0,148.67c3.54-7.15,4.91-14.34,8.58-21.81,8.6-17.53,29.93-43.32,47.92-51.15,4.23-1.84,14.92-2.82,16.8-5.72,1.71-2.62.74-7.84,2.08-11.42C87.74,25.56,137.06,3.15,170.28.33c46.05-3.91,106.42,27.35,75.67,80.13-1.23,2.11-7.69,9.25-7.2,9.67,1.51,1.29,10.7,3.66,15.82,7.85,14.53,11.88,16.97,29.2,12.94,46.81-1.27,5.54-8.09,17.49-7.85,20.85.21,3.02,42.23,33.15,48.21,36.65,46.82,27.37,123.98,41.67,164.04-4.05,3.29-3.76,7.55-12.84,10.09-14.69,1.95-1.42,4.27,1.33,4.52,2.31,2.96,11.49-21.84,29.62-30.83,34.44-66.14,35.44-150.35-.95-200.04-49.07-18.75,22.6-47.43,33.17-76.61,31.5-21.87-1.25-52.54-9-48.29-37.06,1.33-8.75,12.87-18.32,20.4-22.38,22.02-11.87,47.22-10.02,69.62-.25,5.61,2.45,22.03,14.51,25.85,14.68,4.43.2,6.18-30.33,5.69-34.96-.94-8.99-7.68-22.84-15.83-27.05-6.37-3.29-10.03,3.1-15.17,5.14-9,3.58-19.88,7.73-29.27,3.36-11.14-5.18-2.28-17.08,6.06-19.81,10.93-3.58,27.62,3.53,32.95-.83,2.46-2.01,6.88-10.96,8.16-14.34,13.84-36.47-32.25-58.88-62.28-60.22-26.23-1.16-69.12,15.48-85.51,36.3-2.75,3.49-15.04,24.84-12.57,26.83.36.29,6.2-.05,9.11,1.02,9.57,3.52,13.09,9,15.16,18.65,1.87,8.71-2.2,14.23,11.61,6.07,7.38-4.36,15.22-14.09,18.62-21.92,2.39-5.51,5.08-12.33,4.12-18.38-.67-4.2-9.21-10.26-6.8-12.43.7-.63,7.22-.13,9.06,1.06,15.61,10.15-9.4,51.52-25.44,57.96-4.39,1.77-12.38,1.36-12.82,1.83-.61.65-1.56,12.26-4.12,17.27-5.45,10.66-22.32,26.11-34.11,28.95-10.85,2.62-9.9-5.98-5.32-8.09,3.06-1.41,8.59-1.3,12.43-2.84,10.43-4.18,25.56-21.14,26.21-32.44.25-4.47-14.16-9.57-18.72-16.54-6.37-9.72,1.53-17.16-14.83-12.37-23.49,6.89-56.74,50.81-55.7,76,1.55,37.36,44.35,46.39,71.42,27.5,14.95-10.43,30.64-44.19,42.96-60.61,20.92-27.88,48.72-56.83,79.51-73.61,3.41-1.86,19.4-10.68,21.8-8.59,4.71,4.1-18.08,13.27-20.15,14.74-45.8,32.59-61.51,92.53-104.88,127.03-21.94,17.45-60.1,26.1-83.27,6.74-8.92-7.45-10.39-14.56-14.68-24.72v-15.76ZM79.24,76.64c-2.18,2.29,3.24,15.21,5.7,17.92,1.19,1.32,10.54,6.78,11.2,6.79,3.83.05,2.06-4.3,1.74-6.16-1.23-7.06-2.42-12.16-9.04-15.78-1.76-.96-8.82-3.59-9.6-2.77ZM223.39,90.16c-.53-.34-10.93-2.34-12.46-2.4-5.15-.2-11.22,1.92-15.35,4.99-12.36,9.18,9.11,6.81,16.66,5.41,1.81-.34,16.26-4.69,11.15-7.99ZM243.64,162.2c-2.59-2.07-16.31-8.48-20.29-10.14-17.4-7.23-33.7-9.91-52.7-7.7-14.01,1.63-38.06,12.88-35.15,30.13,1.38,8.17,16.97,16.56,24.68,18.19,22.54,4.75,49.83.81,68.44-12.9,2.6-1.91,18.04-15.18,15.02-17.59Z"/>
  <path d="M1052.26,150.91c.8.79,7.07-.26,9.13-.99,10.62-3.75,20.68-26.45,29.18-36.12,7.71-8.77,26.72-27.8,39.08-19.22,2.5,1.74-.14,6.32,5.91,4.56,3.54-6.17,9.85-23.78,15.07-26.61,1.89-1.03,15.55-4.87,17.6-4.92,2.16-.06,1.14,3.37.85,5.35-12.73,18.46-27.73,35.89-39.84,54.73-1.8,2.8-11.39,16.77-9.41,18.72,6.37,6.28,20.64-24.94,23.82-29.08,5.92-7.72,24.64-25.74,33.98-26.78,3.14-.35,7.79,3.87,13.14,4.25,10.52.75,21.24-8.66,14.17,5-4.59,8.86-35.96,45.09-28.79,53.37.6.69,12.13-3.45,14.27-4.86,6.77-4.46,17.21-15.82,19.03-23.75.75-3.26.08-11.46.48-11.9,1.23-1.38,5.63.99,6.48,3.7,5.96,19.14-30.9,50.35-51.03,42-5.91-2.45-3.78-10.43-5.02-11.95-.94-1.15-18.72,16.29-26.52,8.5-2.14-2.14-2.08-7.66-2.77-8.5-.9-1.09-16.84,16.5-24.94,10.3-2.66-2.04-1.52-7.19-2.09-8.06-1.81-2.77-18.72,13.76-27.16,3.47-1.7-2.08-1.75-5.18-2.13-5.72-.59-.82-13.7,10.51-17.98,9.03-.52,3.95,5.1,2.1,7.85,2.24,20.14.99,37.71,2.38,47.42,22.42,3.51,7.25,6.2,11.75,4.02,19.83-7.62,28.22-41.02,35.89-66.67,31.51-18.42-3.15-71.22-40.22-76.75-39.6-3.38.38-16.21,10.07-21.22,12.5-11.49,5.56-29.64,12.95-42.18,14.12-4.31.4-22.79-.8-23.67,0-1.51,1.37,1.08,9.52,2.54,12.09,5.95,10.49,18.98,9.33,28.42,4.32,2.69-1.43,7.68-11.61,11.83-7.41s-7.75,11.68-10.52,13.11c-16.05,8.27-27,7.64-34.95-9.32-2.08-4.44-3.01-11.93-5.26-15-2.65-3.61-14.66-7.52-20.1-13.68-12.84-14.56-15.01-33.15-8.45-50.97,5.66-15.4,22.3-32.45,26.5-45.58.91-2.84-.06-6.95-2.4-6.84-1.12.05-11.49,9.23-13.35,11.39-5.92,6.88-22.79,42.32-25.24,42.72-3.46.57-9.37.06-13.26-.11-2.74-.12-4.53.59-3.31-3.34,2.7-8.68,36.06-43.71,29.25-50.67-3.66-3.74-14.77,8.71-16.77,11.36-5.63,7.46-21.32,41.43-25.98,43.8-4.67,2.38-17.02,2.04-15.65-4.32.6-2.79,24.49-33.79,28.66-41.18,1.12-1.98,4.92-5.71,1.6-7.41l-42.78,51.79c-3.91,2.93-11.27,6.28-16.02,6.71-4.56.41-9.55-2.6-9.89-2.23-2.63,2.89,10.66,11.49,6.73,15.75-5.77,6.26-11.81-16.64-12.47-17.91-2.38-4.58-9.73-7.21-9.82-14.63-.05-4.02,2.96-18.51,5.48-21.41,7.72-8.93,16.02-.59,21.29-3.33.66-.34,10.57-8.7,11.36-9.64,6.23-7.38,5.58-23.92,14.91-25.08,3.2-.4,5.36,2.22,5.31,5.24-.18,9.54-11.11,9.55-13.1,16.27-2.63,8.9,1.47,16.61,1.92,24.44.27,4.76-1.91,9.75-1.23,14.5,10.74-9.85,16.67-23.39,25.99-34.31,3.43-4.02,12.86-13.52,17.32-14.74,9-2.46,10.91,3.94,15.24,4.07,3.28.1,6.29-3.33,9.49-4.06,14.87-3.4,13.5,6.25,15.52,6.49,3.86.47,21.54-9.1,25.55-4.54,7.71,8.76-16.39,38.26-21.29,47.08-8.54,15.35-23.27,40.97-8.77,56.14,2.7,2.83,16.68,11.82,19.8,11.19,2.09-.42,13.49-16.4,18.29-20.02,11.47-8.65,28.65-12.29,42.83-11.24,8.61.63,23.19,7.16,29.13,6.76,6.07-.41,28.52-12.42,36.75-15.17,13.46-4.5,29.29-8.55,43.33-9.61-2.97-1.65-9.49-11.39-10.26-11.38-4.96.03-14.11,8.72-20.32,9.21-7.06.56-8.13-5.85-11.39-6.55-4.59-.99-21.08,14.19-25.19.46-3.72-12.42,5.92-20.16,5.64-24.36-.07-1-6.37-9.91-7.24-10.13-10.52-2.58-24.12,36.46-28,39.58-.62.5-15.3-.77-15.87-1.32-4.35-4.2,27.96-40.37,27.01-49.51-16.57,12.63-28.73,31.37-46.52,42.4-3.64,2.26-14.53,8.13-18.12,8.91-16.85,3.65-21.87-9.26-16.92-23.68,3.61-10.5,31.8-37.17,42.26-38.78,27.9-4.31,18.53,22.05,2.67,29.66-7.07,3.39-24.66,3.46-26.03,4.39-2.15,1.46-9.21,16.83-7.09,19.82,5.43,7.68,33.1-14.55,38.29-19.04,8.78-7.59,31.38-35.84,41.58-35.11,9.21.66,6.05,14.97,1.17,19.31,8.11,2.9,8.85-12.93,14.77-18.99,11.26-11.52,20.27,4.37,8.97,13.45-2.82,2.26-6.37,2.73-9.64,3.88-4.29,1.5-3.73,6.38-2.84,7.27,4.81,4.78,13.14-9.74,15.7-12.43,6.53-6.82,13.4-13.82,23.73-13.56,5.03.13,8.52,4.48,11.19,4.76,3.41.36,16.99-3.19,19.18-1.26l-31.52,48.4c2.22,2.73,11.14.21,12.99-1.67,2.59-2.63,13.47-26.5,17.58-33.06,8.95-14.29,31.21-48.58,43.87-57.45,18.16-12.72,28.87-.72,18.35,18.33-17.06,30.87-51.44,30.74-64.02,66.57-.99,2.83-3.16,11.47-1.74,12.88ZM1117.57,58.64c-2.31-2.16-6.35,3.13-7.88,4.49-4.2,3.7-32.51,31.66-28.15,36.01,3.28,3.27,20.15-13.8,22.54-16.86,1.69-2.17,14.49-22.71,13.49-23.64ZM997.68,105.41c2.32-2.23,3.32-6.51-.61-8.48-10.71,6.21-9.06,17.79.61,8.48ZM1144.61,146.41c4.89,5.05,24.93-16.47,27.97-20.43,2.88-3.75,18.74-27.14,9.15-29.09-8.23-1.67-33.62,32.67-36.08,40.44-.67,2.12-1.92,8.17-1.04,9.08ZM1031.97,99.15c-2.01-2.25-6.47,3.25-7.88,4.49-5.94,5.22-11.06,11.53-16.88,16.9l11.24,3.34c-8.94,3.02-19.48,4.64-22.05,15.11-4.57,18.64,11.63,6.83,18.5-1.77,4.14-5.18,21.4-33.25,17.07-38.08ZM1128.83,99.15c-1.6-1.65-12.12,3.09-14.33,4.79-5.33,4.09-22.18,26.98-25.06,33.48-1.29,2.91-5.72,12.35.02,13.5,6.13,1.24,20.83-15.54,24.58-20.44,3.4-4.45,18.95-27.04,14.79-31.34ZM937.37,103.66c-5.08-5.03-27.04,14.39-29.27,20.24,8.36,5.39,36.05-13.52,29.27-20.24ZM775.2,112.66c-3.03-3.2-17.53,14.52-19.25,17.89-11.38,22.3.14,31.98,11.16,11.15,2.04-3.85,9.13-27.94,8.09-29.04ZM739.19,135.16c.43.49,6.61-3.51,7.87-4.5,2.25-1.77,11.48-9.43,4.48-11.24s-14.32,13.51-12.35,15.75ZM750.43,135.18c-3.14-2.91-17.09,10.19-5.62,15.73,1.19-2.3,6.24-15.17,5.62-15.73ZM1103.35,176.39c-21.32-22.65-72.89-9.74-98.97-.16-7.9,2.9-19.25,6.25-24.19,12.94,26.71,11.81,52.66,37.61,84.4,36.13,24.46-1.14,64.59-21.47,38.77-48.91ZM962.16,186.95c-4.26-2.76-32.91-2.98-39.46-2.3-8.44.87-17.02,4.86-23.67,10.11-2.69,2.12-16.51,16.28-13.45,19.18,1.53,1.45,23.73-1.95,27.59-2.8,13.8-3.04,33.76-12.04,46.08-19.21,1.62-.94,7.11-2.25,2.91-4.98Z"/>
  <path d="M674.02,52.04c-2.14,1.48-3.62,22.55-2.28,24.46,1.6,2.28,36.39-.87,31.24,16.82-3.89,13.38-31.23-8.09-36.44-7.34-8.17,1.17-24.43,11.21-29.92,17.61-15.87,18.53-19.71,59.57,3.57,73.09,1.62.94,13.76,5.7,14.54,5.65,2.47-.16,6.03-16.56,8.24-20.89,8.59-16.82,39.92-38.27,58.89-32.6,4.42,1.32,10.08,9.78,10.56,14.38,2.45,23.36-39.08,41.81-58.05,45.41-6.97,1.32-12.51-1.89-9.14,8.06,4.57,13.52,26.93,14.32,38.71,12.47,35.75-5.61,96.63-35.64,130.37-21.63,29.17,12.11,26.11,50.39-6.41,53.4-29.74,2.76-4.91-31.25-3.14-19.08,1.12,7.68-6.67,4.02-4.51,12.36,24.77,2.81,43.58-24.59,16.59-37.96-54.15-26.83-114.17,37.89-160.77,16.6-13.97-6.38-15.46-21.32-18.3-23.35-1.26-.9-14.94-.22-20.1-1.3-35.46-7.39-39.45-54.79-22.04-80.81,5.34-7.98,16.33-16.1,25.12-19.92,4.34-1.89,21.06-5.52,21.7-6.45,2.94-4.27-3.63-10.67-4.33-14.55-.83-4.56,1.02-22.33-.21-23.43-7.77-.29-14.17-4.77-21.36-6.79-42.38-11.9-130.53-24.28-165.47,7.71-28.22,25.83,2.08,57.99,35.91,35.88,1.14-.74,14.19-13.93,11.41-4.36-5.38,18.53-56.99,28.2-62.52-2.73-4.77-26.67,13.29-44.43,37.25-51.77,51.19-15.68,119.56,4.27,169.33,19.64,13.38-37.58,65.68-52.81,96.79-27.94,28.67,22.92,13.08,68.72-27.96,61.7-7.57-1.29-6.83-9.05-11.69-10.83s-12.76-1.93-18.74-3.79c-5.31-1.65-23.71-9.89-26.87-7.72ZM732.42,67.61c24.58,6.75,45.09-21.41,28.2-42.79-16.47-20.83-55.37-11.09-72.53,5.26-2.34,2.23-12.46,15.28-9.73,17.28,10.06-.51,31.56,11.37,39.54,10.68,3.67-.32,6.6-18.28,17.73-17.47,6.18.45,11.85,5.88,12.28,12.13l-15.48,14.92ZM725.67,58.62c2.15,2,18.02-1.72,15.75-10.1-2.69-9.89-18.37,7.67-15.75,10.1ZM676.11,83.41c.91,4.8,18.92,12.25,20.26,5.59s-16.06-7.32-20.26-5.59ZM725.39,137.67c-1.22-1.77-11.37-2.8-14.34-2.62-16.8.99-41.16,23.68-46.68,39.03-3.73,10.35-.98,9.87,10.46,8.21,13.2-1.93,43.76-17.03,49.12-29.69,1.42-3.35,3.15-12.43,1.44-14.92Z"/>
  <path d="M599.52,81.15c.84.89.02,8.92-1.13,11.24-2.01,4.06-10.58,8.18-11.97,12.8-6.7,22.38,14.37,61.97-31.94,57.01.73,3.83,5.59,4.47,7.93,6.69,7.97,7.57,1.77,13.6-5.76,5.76-5.45-5.68-6.36-24.02-14.86-25.79-2.82-.59-16.8,12.4-26.7,11.2-8.48-1.02-4.51-9.99-5.67-11.37-1.95-2.32-11.85,9.78-19.07,9.1-7.7-.73-7.99-8.71-10.23-11.34-3.47-4.08-4.53,3.35-6.03,4.5-4.9,3.74-14.98,6.76-18.1,9.61-5.34,4.88-10.97,18.37-18.58,25.32-6.43,5.88-19.75,13.29-28.36,14.41-17.97,2.34-40.86-5.26-34.33-27.56,3.38-11.56,33.23-14.06,43.35-12.64,8.04,1.13,17.54,8.99,24.96-.11,6.4-7.84-7.27-2.32-9.2-2.33-5.78-.04-9.99-14.24-9.46-18.81.31-2.63,14.71-24.04,17.52-27.27,6.68-7.68,20.15-16.08,30.32-17.01,10.88-1,17.37,5.61,28.21,2.37-11.16,15.41-25.95,32.9-34.91,49.51-1.93,3.57-2.22,5.19,2.23,4.48,2.49-4.61,10.18-7.42,12.5-10.57s3.71-9.5,6.27-13.45c8.79-13.58,24.34-33.25,42.12-32.44,6.26.28,8.77,3.44,11.15,3.72,3.12.37,14.79-3.13,16.94-1.26,2.38,2.06-23.85,31.92-25.17,36.73-4.28,7.45-12.29,22.12,3.49,12.49,12.7-7.75,6.61-29.16,23.94-28.96-1.63,4.92-9.21,5.5-11.05,10.32-1.05,2.75-.6,7.26,3.15,5.41,4.55-2.25,7.61-10.07,11.26-13.52,7.88-7.46,13.71-7.88,21.06-19.47,1.74-2.75,10.04-25.23,16.13-18.76ZM480.14,99.15c-4.96-5.13-28.12,19.49-31.5,23.65-3.93,4.85-11.19,15.45-12.63,21.25-2.57,10.34,8.05,6.57,13.73,2.35,6.8-5.05,26.88-30.34,29.36-38.18.67-2.12,1.92-8.17,1.04-9.08ZM536.45,101.41c-.81-.8-10.97-.14-13.5,1.12-7.21,3.59-35,40.44-29.28,46.13.93.93,6.78-.21,8.94-1.18,7.37-3.29,27.21-28.44,31.22-36.33,1.13-2.22,4.23-8.17,2.62-9.75ZM554.47,153.16c.28.27,6.87,2.03,7.55,1.9,8.86-1.69,19.69-39.46,17.22-42.41-1.33-1.59-11.37,7.81-13.14,10.49-1.97,2.99-12.8,28.9-11.64,30.01ZM548.36,138.03c-3.1,3.32-3.84,13.01.48,12.86,3.6-.13,4.73-14.43,7.85-16.87-1.61-.85-7.54,3.16-8.33,4.01ZM435.1,166.68c-1.5-1.45-35.65,0-41.67,0-9.73,0-23.49,18-7.94,23.69,11.98,4.39,26.42,3.85,37.27-3.39,3.6-2.4,16.07-16.69,12.34-20.31Z"/>
  <path d="M369.79,153.16c2.04,1.97,13.08-4.48,14.58-6.8,2.97-4.59,4.99-19.38,8.95-27.07,6.56-12.75,21.8-25.89,36.43-26.81,21.93-1.38,10.61,25.41-5.78,30.42-11.59,3.54-22.12-3.84-24.83,15.75s12.64,11.53,21.34,3.26c3.18,6.49-12,14.75-18.14,15.66-10.92,1.6-13.96-4.43-17.9-4.47-5.02-.05-10.88,9.84-17.94,9.2-5.61-.5-8.41-8.34-11.63-8.99-2.33-.47-5.22,3.65-8.76,4.33-10.45,2.02-16.57-1.48-17.01-12.38-.31-7.58,4.95-12.53,3.52-19.13-10.81,1.49-13.22,12.21-19.16,19.12-19.45,22.6-42.9,14.33-32.65-16.89,5.06-15.41,30.62-46.09,48.34-34.73,12.51,8.03-4.45,28.06-2.13,30.26.33.31,6.03.23,7.58-.29,1.29-.43,13.99-16.45,18.34-19.93,5.75-4.6,16.92-12.41,24.25-10.96,4.07.81,8.94,6.39,9.51,6.4,2.51.04,13.38-25.99,17.87-29.39.89-.67,17.22-6.55,18.19-6.56,2.93,0,2.98,2.68,1.16,5.61-10.19,16.41-24.12,31.68-34.79,48.54-4.93,7.78-11,17.3-15.2,25.33-1.11,2.12-5.54,9.12-4.11,10.51ZM320.86,110.99c1.85-2.03,6.9-2.38,8.12-6.51.87-2.95-.73-7.11-3.15-7.6-7.68-1.55-30,27.37-32.73,34.8-1.23,3.36-3.72,15.34-2.14,16.99,5.34,5.58,29.17-14.48,29.19-21.24.01-4.93-4.98-10.18.71-16.44ZM355.67,145.8c4.98-8.51,27.57-32.71,27.68-41.1.03-2.23-1.69-4.96-3.6-5.48-10.16-2.8-35.23,29.5-36.88,39.43-2.13,12.78,2.02,12.26,12.81,7.15ZM437.35,99.15c-5.05-5-19.29,10.96-22.52,14.62-9.91,11.25-.33,8.66,8.81,4.3,4.65-2.21,18.46-14.22,13.71-18.93Z"/>
  <text class="cls-1" transform="translate(446.92 297.19)"><tspan x="0" y="0">MENDOZA</tspan></text>
</svg>